<?xml version="1.0" encoding="utf-8"?>
<!-- Generator: Adobe Illustrator 13.0.1, SVG Export Plug-In . SVG Version: 6.00 Build 14948)  -->
<!DOCTYPE svg PUBLIC "-//W3C//DTD SVG 1.1//EN" "http://www.w3.org/Graphics/SVG/1.1/DTD/svg11.dtd">
<svg version="1.1" id="Layer_1" xmlns="http://www.w3.org/2000/svg" xmlns:xlink="http://www.w3.org/1999/xlink" x="0px" y="0px"
	 width="24px" height="24px" viewBox="0 0 24 24" enable-background="new 0 0 24 24" xml:space="preserve">
<g>
	<g>
		<path d="M20.041,5L6.071,4.002c-0.178,0-0.349,0.02-0.512,0.058C5.337,3.569,5.042,3.128,4.707,2.793C4.139,2.224,3.242,2,2,2v2
			c0.758,0,1.195,0.109,1.293,0.207C3.671,4.585,4,5.353,4,6l0.01,0.142L4.99,13c-1.639,0.086-2.91,1.359-2.988,2.95L2,17
			c0.097,1.645,1.363,2.908,2.943,2.998H5.17C5.582,21.164,6.693,22,8,22c1.306,0,2.417-0.835,2.829-2h2.342
			c0.411,1.165,1.522,2,2.829,2c1.656,0,3-1.344,3-3s-1.344-3-3-3c-1.307,0-2.418,0.835-2.829,2h-2.342C10.417,16.835,9.306,16,8,16
			s-2.417,0.835-2.829,2H5c-0.51-0.031-0.967-0.488-1.002-1.061L4,16c0.027-0.519,0.481-0.973,1.049-1.001L7.024,15h10.093
			l0.147-0.047c0.758-0.24,1.364-0.812,1.652-1.551l0.105-0.209l0.343-0.678c0.354-0.702,0.707-1.405,1.053-2.092
			c0.846-1.683,1.377-2.752,1.494-3.015C22.518,6.061,21.293,5.022,20.041,5z M16,18c0.553,0,1,0.447,1,1s-0.447,1-1,1s-1-0.447-1-1
			S15.447,18,16,18z M8,18c0.552,0,1,0.447,1,1s-0.448,1-1,1s-1-0.447-1-1S7.448,18,8,18z M18.631,9.526l-0.015,0.029
			c-0.33,0.657-0.684,1.359-1.037,2.061l-0.342,0.677l-0.13,0.256l-0.049,0.113c-0.053,0.146-0.156,0.266-0.289,0.338H7.113
			C7.049,12.982,7,12.928,6.99,12.859L6.01,6.001l13.883,0.994C19.65,7.49,19.209,8.375,18.631,9.526z"/>
	</g>
</g>
</svg>
